# xmcd
#
# Track frame offsets:
#	150
#	4136
#	25164
#	42603
#	56248
#	76618
#	89633
#	102587
#	124639
#	143640
#	166974
#	188690
#	213503
#
# Disc length: 3010 seconds
# Revision: 0
# Processed by: cddbd v1.5.2PL0 Copyright (c) Steve Scherf et al.
# Submitted via: dBpowerAMP V12.0
#
DISCID=ae0bc00d
DTITLE=Jones - Happy Blue
DYEAR=2016
DGENRE=Pop
TTITLE0=First
TTITLE1=Ghost Of Song
TTITLE2=Happy Blue
TTITLE3=Lovers Never Tell
TTITLE4=Naked As Adam
TTITLE5=Three Kisses
TTITLE6=Weakness And Wine
TTITLE7=Cartwheels
TTITLE8=St Cecelia
TTITLE9=Battersea Bay
TTITLE10=Misbegotten Moon
TTITLE11=My Muffled Prayer
TTITLE12=Last
EXTD=
EXTT0=
EXTT1=
EXTT2=
EXTT3=
EXTT4=
EXTT5=
EXTT6=
EXTT7=
EXTT8=
EXTT9=
EXTT10=
EXTT11=
EXTT12=
PLAYORDER=
